<svg width="22" height="24" viewBox="0 0 22 24" fill="none" xmlns="http://www.w3.org/2000/svg">
<path d="M20.989 9.35498C20.907 4.18402 16.453 0 10.99 0C5.47602 0 0.98999 4.26202 0.98999 9.50002C0.98999 9.51202 0.999975 9.52102 0.999975 9.53302C1.00597 9.61702 1.02796 9.70003 1.07797 9.77503C1.08097 9.78005 1.08097 9.78605 1.08496 9.79102C1.08594 9.792 1.08594 9.79402 1.08697 9.795L8.54596 20H8.48994C8.21394 20 7.98993 20.224 7.98993 20.5V23.5C7.98993 23.776 8.21394 24 8.48994 24H13.49C13.766 24 13.99 23.776 13.99 23.5V20.5C13.99 20.224 13.766 20 13.49 20H13.434L20.838 9.87103C20.94 9.77803 21.01 9.64603 21.01 9.50002C21.01 9.45 21.003 9.40102 20.989 9.35498ZM2.14101 9.54398C2.85402 8.793 3.72899 8.364 4.65702 8.364C5.66802 8.364 6.623 8.85698 7.36504 9.74198L9.86404 20H9.78402L2.14101 9.54398ZM8.37102 9.65002C9.10002 8.829 10.017 8.364 10.99 8.364C11.963 8.364 12.88 8.829 13.609 9.65002L11.088 20H10.8921L8.37102 9.65002ZM12.99 23H8.99V21H12.99V23ZM12.197 20H12.116L14.615 9.74203C15.357 8.85703 16.312 8.36405 17.324 8.36405C18.251 8.36405 19.126 8.79206 19.839 9.54403L12.197 20ZM14.157 8.75002C13.268 7.85203 12.162 7.36402 10.99 7.36402C9.81796 7.36402 8.71199 7.85203 7.82296 8.74903C6.93397 7.85203 5.82894 7.36402 4.65697 7.36402C3.73597 7.36402 2.85599 7.665 2.09099 8.22802C2.74199 4.143 6.48501 0.999984 10.99 0.999984C15.495 0.999984 19.238 4.143 19.889 8.229C18.147 6.94702 15.743 7.14802 14.157 8.75002Z" fill="white"/>
</svg>
