<svg width="20" height="24" viewBox="0 0 20 24" fill="none" xmlns="http://www.w3.org/2000/svg">
<path d="M19.191 8.36522C19.191 7.17019 18.6403 6.0772 17.6803 5.36658C16.9589 4.83272 16.1004 4.58147 15.2351 4.63523C14.919 2.02734 12.6918 0 10 0C7.30821 0 5.08104 2.02734 4.76496 4.63523C3.89932 4.58133 3.04104 4.83272 2.31977 5.36658C1.35968 6.07725 0.80899 7.17019 0.80899 8.36522C0.80899 9.55364 1.38269 10.6578 2.30477 11.3526C1.53335 12.2473 1.10496 13.387 1.10496 14.5985C1.10496 17.3467 3.3408 19.5825 6.08899 19.5825C7.27999 19.5825 8.40678 19.165 9.29689 18.4139V23.2969C9.29689 23.6852 9.6117 24 10 24C10.3883 24 10.7031 23.6852 10.7031 23.2969V18.4139C11.5932 19.165 12.72 19.5825 13.911 19.5825C16.6592 19.5825 18.8951 17.3467 18.8951 14.5985C18.8951 13.3871 18.4667 12.2474 17.6953 11.3526C18.6173 10.6578 19.191 9.55364 19.191 8.36522ZM13.911 18.1763C12.8148 18.1763 11.7939 17.6835 11.1101 16.8245C11.0064 16.6942 10.8615 16.6076 10.7031 16.5746V12.4292C10.7127 12.4207 10.7224 12.4126 10.7315 12.4035L12.7472 10.3879C13.0218 10.1133 13.0218 9.66811 12.7472 9.39352C12.4726 9.11892 12.0274 9.11892 11.7528 9.39352L10.7031 10.4431V5.71875C10.7031 5.33044 10.3883 5.01562 10 5.01562C9.6117 5.01562 9.29689 5.33044 9.29689 5.71875V13.115L7.56748 11.3856C7.29293 11.111 6.84771 11.111 6.57312 11.3856C6.29853 11.6602 6.29853 12.1054 6.57312 12.38L9.12781 14.9347C9.17895 14.9858 9.23609 15.0274 9.29684 15.0595V16.5742C9.13849 16.6072 8.9936 16.6942 8.88992 16.8244C8.2061 17.6835 7.18521 18.1763 6.08895 18.1763C4.11616 18.1763 2.51116 16.5713 2.51116 14.5984C2.51116 13.4793 3.02065 12.4453 3.90902 11.7615C4.11134 11.6057 4.21334 11.3526 4.17551 11.1001C4.13763 10.8476 3.96588 10.6354 3.72677 10.5459C2.82265 10.2073 2.21519 9.33094 2.21519 8.36522C2.21519 7.62056 2.55823 6.93956 3.1564 6.49688C3.75799 6.05156 4.51165 5.92092 5.22424 6.13861C5.43743 6.20372 5.66881 6.16392 5.84796 6.03131C6.02712 5.8987 6.13277 5.68903 6.13277 5.46614V5.27344C6.13277 3.14105 7.86762 1.40625 9.99996 1.40625C12.1323 1.40625 13.8672 3.14105 13.8672 5.27344V5.46614C13.8672 5.68903 13.9729 5.8987 14.152 6.03131C14.3311 6.16392 14.5625 6.20367 14.7757 6.13861C15.4882 5.92097 16.242 6.05161 16.8435 6.49688C17.4417 6.93956 17.7847 7.62056 17.7847 8.36522C17.7847 9.33098 17.1773 10.2073 16.2732 10.5459C16.034 10.6355 15.8623 10.8476 15.8244 11.1001C15.7866 11.3526 15.8885 11.6058 16.0909 11.7615C16.9793 12.4454 17.4888 13.4794 17.4888 14.5985C17.4888 16.5713 15.8838 18.1763 13.911 18.1763Z" fill="white"/>
</svg>
