<svg width="21" height="21" viewBox="0 0 21 21" fill="none" xmlns="http://www.w3.org/2000/svg">
<path d="M20.3848 15.8156H19.6445C19.4386 14.1479 18.4125 13.2683 17.6411 12.6078C16.9752 12.0378 16.5984 11.6888 16.5984 11.1469C16.5984 11.146 16.5983 11.1451 16.5983 11.1443L16.5984 4.48247C16.5984 3.64412 16.2762 2.57857 15.7576 1.70166C15.1085 0.604324 14.2731 0 13.4052 0C12.5371 0 11.7015 0.604283 11.0524 1.70157C10.6377 2.40265 10.3491 3.22407 10.2499 3.95387H5.7226V0.615234C5.7226 0.275461 5.44714 0 5.10737 0H0.615296C0.275522 0 6.10352e-05 0.275461 6.10352e-05 0.615234V20.3848C6.10352e-05 20.7245 0.275522 21 0.615296 21H5.10737H20.3848C20.7245 21 21 20.7245 21 20.3848V16.4309C21 16.091 20.7245 15.8156 20.3848 15.8156ZM16.8409 13.5426C17.5472 14.1472 18.2201 14.7233 18.403 15.8156H16.5982L16.5982 13.333C16.6794 13.4043 16.7608 13.474 16.8409 13.5426ZM5.7226 15.8156V5.18438H10.2114L10.2116 11.1434C10.2116 11.1446 10.2114 11.1457 10.2114 11.1469C10.2114 11.6889 9.83467 12.0378 9.16882 12.6078C8.3974 13.2683 7.37135 14.1479 7.16549 15.8156H5.7226ZM4.49214 11.8617H1.23053V9.13828H4.49214V11.8617ZM4.49214 7.90781H1.23053V5.18438H4.49214V7.90781ZM1.23053 13.0921H4.49214V15.8156H1.23053V13.0921ZM9.96912 13.5425C10.0492 13.474 10.1305 13.4043 10.2117 13.333L10.2117 15.8156H8.40712C8.59005 14.7233 9.26287 14.1472 9.96912 13.5425ZM11.4422 14.4101H15.3678L15.3677 15.8156H11.4422L11.4422 14.4101ZM13.4052 1.23047C14.3152 1.23047 15.368 3.1984 15.368 4.48243L15.3678 13.1797H11.4422L11.4419 4.48243C11.4419 3.1984 12.495 1.23047 13.4052 1.23047ZM4.49214 1.23047V3.95387H1.23053V1.23047H4.49214ZM1.23053 17.0461H4.49214V19.7695H1.23053V17.0461ZM19.7695 19.7695H5.7226V17.0461H7.74328H10.827H15.983H19.0668H19.7696V19.7695H19.7695Z" fill="white"/>
</svg>
