<svg width="20" height="20" viewBox="0 0 20 20" fill="none" xmlns="http://www.w3.org/2000/svg">
<path d="M12.3075 6.82388L10.6863 3.53878C10.5573 3.27755 10.2913 3.11219 9.99999 3.11219C9.70872 3.11219 9.44265 3.2776 9.31372 3.53878L7.69244 6.82388L4.06714 7.35066C3.77887 7.39255 3.53933 7.59449 3.44933 7.87153C3.35928 8.14857 3.43438 8.4527 3.64295 8.65602L6.26627 11.2131L5.64698 14.8238C5.59775 15.1109 5.71576 15.4011 5.95142 15.5723C6.18714 15.7435 6.49953 15.7661 6.75739 15.6306L9.99999 13.9258L13.2425 15.6305C13.5019 15.7668 13.8142 15.7424 14.0485 15.5722C14.2842 15.401 14.4022 15.1108 14.353 14.8237L13.7337 11.213L16.357 8.65592C16.5656 8.4526 16.6407 8.14847 16.5506 7.87143C16.4606 7.59439 16.2211 7.39245 15.9328 7.35056L12.3075 6.82388ZM12.3772 10.3979C12.1968 10.5737 12.1145 10.827 12.1571 11.0753L12.5822 13.5541L10.3561 12.3838C10.2446 12.3251 10.1223 12.2959 9.99999 12.2959C9.8777 12.2959 9.75535 12.3251 9.64387 12.3838L7.41775 13.5541L7.8429 11.0753C7.88545 10.827 7.80316 10.5737 7.6228 10.3979L5.82183 8.64235L8.31071 8.28071C8.55999 8.24449 8.77545 8.08791 8.88693 7.86204L9.99999 5.60673L11.1131 7.86204C11.2245 8.08791 11.44 8.24449 11.6893 8.28071L14.1782 8.64235L12.3772 10.3979Z" fill="white"/>
<path d="M10 0C4.50827 0 0 4.50781 0 10C0 15.4917 4.50781 20 10 20C15.4917 20 20 15.4922 20 10C20 4.50827 15.4922 0 10 0ZM10 18.4694C5.32995 18.4694 1.53061 14.6701 1.53061 10C1.53061 5.32995 5.32995 1.53061 10 1.53061C14.6701 1.53061 18.4694 5.32995 18.4694 10C18.4694 14.6701 14.6701 18.4694 10 18.4694Z" fill="white"/>
</svg>
