<svg width="32" height="32" viewBox="0 0 32 32" fill="none" xmlns="http://www.w3.org/2000/svg">
<path d="M24.8372 8.17954L7.10085 14.8506C6.50897 15.0732 6.49095 15.9039 7.07264 16.152L10.7383 17.7153C10.9489 17.8051 11.19 17.7865 11.3843 17.6654L22.2984 10.8638C22.3924 10.8053 22.5144 10.8192 22.5928 10.8976C22.6885 10.9933 22.6853 11.1496 22.5856 11.2413L13.941 19.1951C13.8086 19.3169 13.7282 19.4848 13.7161 19.6643L13.5354 22.3625C13.4941 22.9791 14.2127 23.3438 14.686 22.9464L16.3599 21.5412C16.6004 21.3392 16.9459 21.3219 17.2055 21.4987L21.5894 24.4848C22.003 24.7665 22.5702 24.5367 22.671 24.0465L25.7709 8.97717C25.8821 8.43644 25.3539 7.98517 24.8372 8.17954Z" fill="#5da8dc"/>
</svg>
