<svg xmlns="http://www.w3.org/2000/svg" xmlns:xlink="http://www.w3.org/1999/xlink" id="eV03NjImHi11" viewBox="0 0 200 80" shape-rendering="geometricPrecision" text-rendering="geometricPrecision"><style><![CDATA[#eV03NjImHi110_to {animation: eV03NjImHi110_to__to 2500ms linear infinite normal forwards}@keyframes eV03NjImHi110_to__to { 0% {offset-distance: 0%} 5.333333% {offset-distance: 0.656544%} 9.666667% {offset-distance: 53.572243%;animation-timing-function: cubic-bezier(0.25,1,0.91,0.615)} 14.666667% {offset-distance: 54.775116%} 19.666667% {offset-distance: 100%} 100% {offset-distance: 100%}} #eV03NjImHi110_tr {animation: eV03NjImHi110_tr__tr 2500ms linear infinite normal forwards}@keyframes eV03NjImHi110_tr__tr { 0% {transform: rotate(90deg)} 5.333333% {transform: rotate(90deg)} 9.666667% {transform: rotate(180deg);animation-timing-function: cubic-bezier(0.25,1,1,0.645)} 19.666667% {transform: rotate(270deg)} 100% {transform: rotate(270deg)}}]]></style><g id="eV03NjImHi13" transform="matrix(1 0 0 1 17.000021 14.163453)"><path id="eV03NjImHi14" d="M8.78413,20.2214L14.5961,39.3302L20.4081,20.2214L29.1456,20.2214L19.6379,47.0095L9.50771,47.0095L0,20.2214L8.78413,20.2214Z" fill="rgb(255,255,255)" stroke="none" stroke-width="1"/><path id="eV03NjImHi15" d="M40.9096,47.3985C33.0357,47.3985,27.3716,42.1156,27.3716,33.6194C27.3716,25.1231,32.9424,19.8324,40.9096,19.8324C48.7367,19.8324,54.2608,25.022,54.2608,33.1836C54.2608,33.9539,54.2141,34.7631,54.113,35.58L35.5333,35.58C35.8212,39.089,37.9841,40.7151,40.6217,40.7151C42.9247,40.7151,44.224,39.5636,44.8932,38.1242L53.6306,38.1242C52.339,43.3683,47.5852,47.3985,40.9096,47.3985ZM35.58,31.0207L45.8579,31.0207C45.8579,28.0875,43.5549,26.4069,40.8162,26.4069C38.1242,26.4147,36.0623,28.0486,35.58,31.0207Z" fill="rgb(255,255,255)" stroke="none" stroke-width="1"/><path id="eV03NjImHi16" d="M63.8539,47.0095L55.6377,47.0095L55.6377,20.2214L63.8539,20.2214L63.8539,24.6874C65.7289,21.8553,68.6544,19.9335,72.2567,19.9335L72.2567,28.6243L70.0004,28.6243C66.1102,28.6243,63.8539,29.9703,63.8539,34.5763L63.8539,47.0095Z" fill="rgb(255,255,255)" stroke="none" stroke-width="1"/><path id="eV03NjImHi17" d="M82.1224,47.0095L73.9141,47.0095L73.9141,20.2214L82.1224,20.2214L82.1224,24.6874C83.9975,21.8553,86.923,19.9335,90.5253,19.9335L90.5253,28.6243L88.269,28.6243C84.3788,28.6243,82.1224,29.9703,82.1224,34.5763L82.1224,47.0095Z" fill="rgb(255,255,255)" stroke="none" stroke-width="1"/><path id="eV03NjImHi18" d="M91.5212,20.2214L99.7374,20.2214L99.7374,47.0095L91.5212,47.0095L91.5212,20.2214Z" fill="rgb(255,255,255)" stroke="none" stroke-width="1"/><path id="eV03NjImHi19" d="M91.5212,17.2025L91.5212,8.7218L99.7374,8.7218" fill="rgb(255,255,255)" stroke="none" stroke-width="1"/><g id="eV03NjImHi110_to" style="offset-path:path('M100.028,0.076547C100.026743,-0.010509,100.065319,0.177449,100.028,0.076818C100.924781,-2.26243,107.361787,-2.254098,108.237001,0.076547C108.152063,0.07872,108.258398,0.192058,108.184634,0.259043C108.259527,0.357005,108.561854,8.171778,108.500911,8.285547');offset-rotate:0deg"><g id="eV03NjImHi110_tr" transform="rotate(90)"><path id="eV03NjImHi110" d="M100.243,0L108.452,0L108.452,8.47291L100.243,8.47291L100.243,0Z" transform="translate(-100.243,-8.47291)" fill="rgb(30,213,232)" stroke="none" stroke-width="1"/></g></g><path id="eV03NjImHi111" d="M114.661,47.3985C106.787,47.3985,101.123,42.1156,101.123,33.6194C101.123,25.1231,106.693,19.8324,114.661,19.8324C122.488,19.8324,128.012,25.022,128.012,33.1836C128.012,33.9539,127.965,34.7631,127.864,35.58L109.284,35.58C109.572,39.089,111.735,40.7151,114.373,40.7151C116.676,40.7151,117.975,39.5636,118.644,38.1242L127.382,38.1242C126.082,43.3683,121.328,47.3985,114.661,47.3985ZM109.331,31.0207L119.609,31.0207C119.609,28.0875,117.306,26.4069,114.567,26.4069C111.875,26.4147,109.806,28.0486,109.331,31.0207Z" fill="rgb(255,255,255)" stroke="none" stroke-width="1"/><path id="eV03NjImHi112" d="M137.597,47.0095L129.389,47.0095L129.389,20.2214L137.597,20.2214L137.597,24.6874C139.472,21.8553,142.398,19.9335,146,19.9335L146,28.6243L143.744,28.6243C139.853,28.6243,137.597,29.9703,137.597,34.5763L137.597,47.0095Z" fill="rgb(255,255,255)" stroke="none" stroke-width="1"/><path id="eV03NjImHi113" d="M59.2864,57.0491L57.1417,57.0491L57.1417,58.8081L59.0626,58.8081L59.0626,59.379L57.1417,59.379L57.1417,61.1919L59.2941,61.1919L59.2941,61.7628L56.4551,61.7628L56.4551,56.486L59.2941,56.486L59.2941,57.0491L59.2864,57.0491Z" fill="rgb(255,255,255)" stroke="none" stroke-width="1"/><path id="eV03NjImHi114" d="M68.1273,59.7026L66.9238,61.7624L66.1601,61.7624L67.7724,59.1317L66.1523,56.4933L66.9238,56.4933L68.1967,58.5608L69.4079,56.4933L70.1794,56.4933L68.5516,59.1317L70.1717,61.7624L69.3925,61.7624L68.1273,59.7026Z" fill="rgb(255,255,255)" stroke="none" stroke-width="1"/><path id="eV03NjImHi115" d="M79.5374,56.4238C80.6792,56.4238,81.5896,57.0024,81.983,58.0208L81.1575,58.0208C80.8721,57.3882,80.3089,57.0333,79.5374,57.0333C78.4342,57.0333,77.6088,57.8356,77.6088,59.1317C77.6088,60.42,78.4342,61.2224,79.5374,61.2224C80.3089,61.2224,80.8721,60.8675,81.1575,60.2426L81.983,60.2426C81.5896,61.2532,80.6792,61.8241,79.5374,61.8241C78.0639,61.8241,76.9067,60.7209,76.9067,59.1394C76.9067,57.5579,78.0639,56.4238,79.5374,56.4238Z" fill="rgb(255,255,255)" stroke="none" stroke-width="1"/><path id="eV03NjImHi116" d="M92.4446,59.3709L89.7599,59.3709L89.7599,61.7624L89.0732,61.7624L89.0732,56.4933L89.7599,56.4933L89.7599,58.8077L92.4446,58.8077L92.4446,56.4933L93.1312,56.4933L93.1312,61.7624L92.4446,61.7624L92.4446,59.3709Z" fill="rgb(255,255,255)" stroke="none" stroke-width="1"/><path id="eV03NjImHi117" d="M103.476,60.5899L101.177,60.5899L100.753,61.7625L100.028,61.7625L101.933,56.5165L102.728,56.5165L104.626,61.7625L103.901,61.7625L103.476,60.5899ZM102.327,57.3652L101.37,60.0267L103.276,60.0267L102.327,57.3652Z" fill="rgb(255,255,255)" stroke="none" stroke-width="1"/><path id="eV03NjImHi118" d="M115.673,56.4854L115.673,61.7623L114.986,61.7623L112.217,57.5655L112.217,61.7623L111.53,61.7623L111.53,56.4854L112.217,56.4854L114.986,60.6745L114.986,56.4854L115.673,56.4854Z" fill="rgb(255,255,255)" stroke="none" stroke-width="1"/><path id="eV03NjImHi119" d="M127.724,58.0208L126.898,58.0208C126.613,57.4113,126.034,57.0488,125.294,57.0488C124.183,57.0488,123.35,57.8511,123.35,59.124C123.35,60.3892,124.183,61.1915,125.294,61.1915C126.327,61.1915,127.045,60.5281,127.145,59.4789L125.039,59.4789L125.039,58.9157L127.878,58.9157L127.878,59.448C127.755,60.7595,126.721,61.8087,125.294,61.8087C123.812,61.8087,122.647,60.7055,122.647,59.124C122.647,57.5425,123.812,56.4316,125.294,56.4316C126.412,56.4316,127.33,57.0025,127.724,58.0208Z" fill="rgb(255,255,255)" stroke="none" stroke-width="1"/><path id="eV03NjImHi120" d="M137.699,57.0486L135.546,57.0486L135.546,58.8075L137.467,58.8075L137.467,59.3784L135.546,59.3784L135.546,61.1914L137.699,61.1914L137.699,61.7623L134.86,61.7623L134.86,56.4854L137.699,56.4854L137.699,57.0486Z" fill="rgb(255,255,255)" stroke="none" stroke-width="1"/></g></svg>