<svg width="175" height="74" viewBox="0 0 175 74" fill="none" xmlns="http://www.w3.org/2000/svg">
<path d="M10.5063 24.1859L17.4577 47.041L24.4092 24.1859H34.8597L23.4879 56.2259H11.3717L0 24.1859H10.5063Z" fill="black"/>
<path d="M48.9302 56.6912C39.5127 56.6912 32.738 50.3725 32.738 40.2105C32.738 30.0486 39.401 23.7206 48.9302 23.7206C58.2919 23.7206 64.899 29.9276 64.899 39.6894C64.899 40.6107 64.8432 41.5785 64.7222 42.5556H42.4999C42.8442 46.7525 45.4312 48.6975 48.5859 48.6975C51.3404 48.6975 52.8945 47.3202 53.6948 45.5986H64.1452C62.6005 51.8707 56.9146 56.6912 48.9302 56.6912ZM42.5557 37.1024H54.8487C54.8487 33.5941 52.0942 31.584 48.8185 31.584C45.5987 31.5933 43.1327 33.5476 42.5557 37.1024Z" fill="black"/>
<path d="M76.3729 56.2259H66.5459V24.1859H76.3729V29.5274C78.6156 26.1401 82.1146 23.8416 86.4232 23.8416V34.2362H83.7245C79.0716 34.2362 76.3729 35.8461 76.3729 41.3552V56.2259Z" fill="black"/>
<path d="M98.2229 56.2259H88.4053V24.1859H98.2229V29.5274C100.466 26.1401 103.965 23.8416 108.273 23.8416V34.2362H105.575C100.922 34.2362 98.2229 35.8461 98.2229 41.3552V56.2259Z" fill="black"/>
<path d="M109.465 24.1859H119.292V56.2259H109.465V24.1859Z" fill="black"/>
<path d="M109.465 20.5752V10.4319H119.292" fill="black"/>
<path d="M119.896 1.52588e-05H129.714V10.1341H119.896V1.52588e-05Z" fill="#05A6B6"/>
<path d="M137.14 56.6912C127.722 56.6912 120.948 50.3725 120.948 40.2105C120.948 30.0486 127.611 23.7206 137.14 23.7206C146.502 23.7206 153.109 29.9276 153.109 39.6894C153.109 40.6107 153.053 41.5785 152.932 42.5556H130.71C131.054 46.7525 133.641 48.6975 136.796 48.6975C139.55 48.6975 141.104 47.3202 141.904 45.5986H152.355C150.801 51.8707 145.115 56.6912 137.14 56.6912ZM130.765 37.1024H143.058C143.058 33.5941 140.304 31.584 137.028 31.584C133.808 31.5933 131.333 33.5476 130.765 37.1024Z" fill="black"/>
<path d="M164.573 56.2259H154.756V24.1859H164.573V29.5274C166.816 26.1401 170.315 23.8416 174.624 23.8416V34.2362H171.925C167.272 34.2362 164.573 35.8461 164.573 41.3552V56.2259Z" fill="black"/>
<path d="M70.1103 68.2397H67.5233V70.3614H69.8404V71.0501H67.5233V73.2369H70.1196V73.9256H66.6951V67.5604H70.1196V68.2397H70.1103Z" fill="black"/>
<path d="M80.7749 71.4409L79.3232 73.9256H78.4019L80.3468 70.7523L78.3926 67.5697H79.3232L80.8586 70.0636L82.3196 67.5697H83.2502L81.2867 70.7523L83.2409 73.9256H82.301L80.7749 71.4409Z" fill="black"/>
<path d="M94.5383 67.4859C95.9155 67.4859 97.0136 68.1838 97.4882 69.4122H96.4925C96.1482 68.6491 95.4689 68.2211 94.5383 68.2211C93.2075 68.2211 92.2118 69.1889 92.2118 70.7523C92.2118 72.3063 93.2075 73.2741 94.5383 73.2741C95.4689 73.2741 96.1482 72.8461 96.4925 72.0923H97.4882C97.0136 73.3114 95.9155 74 94.5383 74C92.7609 74 91.365 72.6693 91.365 70.7616C91.365 68.8539 92.7609 67.4859 94.5383 67.4859Z" fill="black"/>
<path d="M110.107 71.0407H106.869V73.9256H106.04V67.5697H106.869V70.3614H110.107V67.5697H110.935V73.9256H110.107V71.0407Z" fill="black"/>
<path d="M123.414 72.5111H120.641L120.129 73.9256H119.254L121.553 67.5976H122.511L124.801 73.9256H123.926L123.414 72.5111ZM122.028 68.6212L120.874 71.8317H123.172L122.028 68.6212Z" fill="black"/>
<path d="M138.127 67.5604V73.9256H137.298L133.958 68.8632V73.9256H133.129V67.5604H133.958L137.298 72.6134V67.5604H138.127Z" fill="black"/>
<path d="M152.663 69.4122H151.667C151.323 68.6771 150.625 68.2397 149.731 68.2397C148.391 68.2397 147.386 69.2075 147.386 70.743C147.386 72.2691 148.391 73.2369 149.731 73.2369C150.978 73.2369 151.844 72.4366 151.965 71.171H149.424V70.4917H152.849V71.1338C152.7 72.7158 151.453 73.9814 149.731 73.9814C147.944 73.9814 146.539 72.6506 146.539 70.743C146.539 68.8353 147.944 67.4952 149.731 67.4952C151.081 67.4952 152.188 68.1838 152.663 69.4122Z" fill="black"/>
<path d="M164.695 68.2397H162.099V70.3614H164.416V71.0501H162.099V73.2369H164.695V73.9256H161.271V67.5604H164.695V68.2397Z" fill="black"/>
</svg>
